PathFileType	4	(X/Y/Z)	D:\Share\Shared_Data\Ergonomics\Sit To Stand Pertubation\S2\Unperturbed.trc
DataRate	CameraRate	NumFrames	NumMarkers	Units	OrigDataRate	OrigDataStartFrame	OrigNumFrames	
100	100	14	18	m	100	4115	291
Frame#	Time	R_Toe			R_ASIS			R_Pelvis			V_Sacral			L_Pelvis			L_ASIS			Clavical			R_Acromium			L_Acromium			Sternum			Torso			R_Thigh_Med			R_Thigh_Lat			R_Thigh			R_Shank_Med			R_Shank_Lat			R_Shank			R_Heel			
		X1	Y1	Z1	X2	Y2	Z2	X3	Y3	Z3	X4	Y4	Z4	X5	Y5	Z5	X6	Y6	Z6	X7	Y7	Z7	X8	Y8	Z8	X9	Y9	Z9	X10	Y10	Z10	X11	Y11	Z11	X12	Y12	Z12	X13	Y13	Z13	X14	Y14	Z14	X15	Y15	Z15	X16	Y16	Z16	X17	Y17	Z17	X18	Y18	Z18	

4115	41.14	0.44271118	0.064133232	0.14991966	0.46524301	1.0259216	0.14830347	0.38938425	1.0249447	0.18890222	0.25016394	1.0221057	0.02510998	0.34932443	1.0307272	-0.15488678	0.44484888	1.0395601	-0.12691909	0.43888269	1.4550532	0.0088654709	0.33692889	1.4729747	0.21480667	0.32236966	1.4799052	-0.17313138	0.495758	1.29971	0.0034857938	0.44661859	1.415932	-0.10774992	0.3575654	0.49378729	0.093079597	0.34858334	0.51873163	0.18220776	0.45418445	0.67492969	0.16053386	0.30929605	0.10624467	0.10688561	0.28430826	0.10259555	0.19747649	0.3100574	0.37592261	0.2150912	0.20568549	0.062470524	0.14975197
4116	41.15	0.44270895	0.064130432	0.14993925	0.46538458	1.025874	0.14857434	0.38951166	1.0248921	0.18911409	0.25041705	1.0219754	0.025159561	0.34974103	1.0305417	-0.15473224	0.44529419	1.039411	-0.12666413	0.43881445	1.4549332	0.0088776665	0.33679358	1.472901	0.21477415	0.32234946	1.4796482	-0.17312744	0.49577011	1.2996021	0.0035727782	0.44658008	1.4157335	-0.10773731	0.35755344	0.49378879	0.093223206	0.34855411	0.51871252	0.18235873	0.45424664	0.67488721	0.16076093	0.30929504	0.10623947	0.10690072	0.28428537	0.10257594	0.19747189	0.31001691	0.37591168	0.21518912	0.20568956	0.062463921	0.14975087
4117	41.16	0.4427049	0.064129204	0.14995859	0.46551489	1.0258274	0.14883311	0.38962808	1.0248425	0.1893226	0.2506525	1.021855	0.02519426	0.35014279	1.0303596	-0.15458411	0.44570859	1.0392451	-0.12641442	0.43874857	1.4548102	0.0088929825	0.33663535	1.4727938	0.21474214	0.32231302	1.4793828	-0.17311121	0.49577789	1.2994836	0.0036547186	0.44654425	1.4155303	-0.10772476	0.35754733	0.49378937	0.09336805	0.34853772	0.51868781	0.18251067	0.45431024	0.6748454	0.16096143	0.30928802	0.10623387	0.10692133	0.28426111	0.10255121	0.19747453	0.3099935	0.37589368	0.21529117	0.20569087	0.062452152	0.14975496
4118	41.17	0.44269904	0.064129646	0.14997665	0.46563498	1.0257852	0.14907837	0.38973401	1.0247975	0.18952786	0.25086749	1.021745	0.025227308	0.35051431	1.0301858	-0.15443983	0.44609409	1.0390741	-0.12617314	0.43868478	1.4546875	0.0089084673	0.33645868	1.4726648	0.21471109	0.32226697	1.4791211	-0.17309386	0.49577698	1.2993596	0.003731497	0.44651114	1.4153293	-0.10771275	0.35755682	0.49378879	0.093510376	0.34854086	0.51865802	0.18266069	0.45437833	0.67480798	0.1611358	0.30927618	0.10622812	0.10694536	0.28423654	0.10252329	0.19748215	0.30999188	0.37586835	0.21539505	0.20568977	0.062436729	0.14976236
4119	41.18	0.44269168	0.064131538	0.14999301	0.46574496	1.0257494	0.14930942	0.38982687	1.0247582	0.1897292	0.25105971	1.0216447	0.025270393	0.35084204	1.0300244	-0.15429659	0.44645023	1.0389081	-0.12594272	0.43862271	1.4545682	0.0089215794	0.33626987	1.4725266	0.21468153	0.32221759	1.4788743	-0.17308508	0.49576328	1.2992341	0.0038034832	0.44647958	1.4151359	-0.10770137	0.35758856	0.49378647	0.093647255	0.3485686	0.51862433	0.18280602	0.45445102	0.67477808	0.16128613	0.30926086	0.10622244	0.10697076	0.28421219	0.10249389	0.19749208	0.31001489	0.37583588	0.21549844	0.2056866	0.062418991	0.14977148
4120	41.19	0.44268292	0.064134529	0.15000749	0.46584402	1.0257222	0.14952574	0.38990317	1.0247252	0.18992525	0.25122699	1.0215529	0.025332268	0.35111542	1.0298785	-0.15415184	0.44677313	1.0387559	-0.12572421	0.4385614	1.4544554	0.0089307795	0.33607639	1.472391	0.21465318	0.32216962	1.478653	-0.1730903	0.49573422	1.2991108	0.0038708289	0.4464476	1.4149548	-0.10769041	0.35764627	0.49378162	0.093776413	0.34862393	0.51858771	0.18294395	0.45452588	0.674758	0.16141571	0.3092435	0.10621687	0.10699542	0.28418848	0.1024644	0.19750154	0.31006412	0.37579745	0.21559886	0.20568179	0.062400158	0.14978116
4121	41.2	0.4426731	0.064138214	0.15001985	0.46593024	1.0257041	0.14972725	0.38996066	1.0246987	0.19011443	0.25136722	1.0214678	0.02541803	0.35132806	1.0297491	-0.15400407	0.44705441	1.0386232	-0.12551741	0.43849988	1.4543519	0.0089356699	0.33588644	1.4722694	0.21462524	0.3221261	1.4784646	-0.17310985	0.495689	1.298994	0.0039331591	0.44641351	1.41479	-0.10767946	0.35773138	0.49377399	0.093895859	0.34870825	0.51854962	0.18307201	0.45460007	0.67474884	0.16152901	0.30922571	0.1062113	0.10701716	0.28416605	0.1024361	0.19750803	0.31013983	0.37575497	0.21569318	0.20567592	0.062381565	0.14979059
4122	41.21	0.44266251	0.064142143	0.15002983	0.46600119	1.0256968	0.14991418	0.3899993	1.0246794	0.19029504	0.25147844	1.0213877	0.025529179	0.35147891	1.029637	-0.15385289	0.44728018	1.0385122	-0.12532179	0.43843729	1.45426	0.008936697	0.33570837	1.4721713	0.21459735	0.32208868	1.478314	-0.17314041	0.49562836	1.2988873	0.0039899299	0.44637604	1.4146449	-0.10766801	0.35784341	0.49376422	0.094004112	0.34882135	0.5185116	0.18318796	0.45467157	0.67475098	0.16163107	0.30920914	0.10620568	0.1070341	0.28414575	0.10241022	0.19750963	0.31024133	0.3757106	0.21577806	0.20566965	0.062364834	0.14979921
4123	41.22	0.44265164	0.064145897	0.15003722	0.46605475	1.0257004	0.15008714	0.39002026	1.0246674	0.19046552	0.25155937	1.0213121	0.025664019	0.35157104	1.0295417	-0.15369902	0.44743173	1.0384207	-0.12513769	0.43837335	1.4541816	0.0089348993	0.33554932	1.4721046	0.21457004	0.32205832	1.4782029	-0.17317729	0.49555374	1.2987944	0.0040411434	0.4463349	1.4145226	-0.10765567	0.35798022	0.49375369	0.094100403	0.3489614	0.51847552	0.1832901	0.45474063	0.6747644	0.16172745	0.30919507	0.10620029	0.10704521	0.28412881	0.1023881	0.19750549	0.31036639	0.37566638	0.21585085	0.20566376	0.062351692	0.14980682
4124	41.23	0.44264102	0.064149048	0.15004204	0.46608936	1.0257163	0.15024698	0.39002551	1.0246627	0.19062437	0.25160992	1.0212412	0.025818268	0.35161136	1.0294629	-0.1535439	0.44748889	1.0383436	-0.12496683	0.43830807	1.4541187	0.0089319859	0.33541437	1.4720745	0.21454456	0.32203534	1.4781299	-0.17321562	0.49546719	1.2987175	0.0040878019	0.44629059	1.4144242	-0.10764201	0.35813736	0.49374454	0.094184937	0.34912457	0.5184436	0.1833773	0.45480984	0.67478809	0.16182294	0.30918469	0.10619572	0.10705044	0.28411676	0.10237106	0.19749597	0.31051132	0.37562439	0.21590977	0.20565897	0.062343544	0.14981332
4125	41.24	0.4426311	0.064151245	0.15004483	0.46610501	1.0257443	0.15039476	0.3900173	1.0246655	0.19077058	0.25163165	1.0211755	0.025986084	0.35160849	1.0294008	-0.1533894	0.4474346	1.0382749	-0.1248119	0.43824091	1.4540715	0.0089303141	0.33530615	1.4720834	0.21452269	0.32201956	1.4780907	-0.1732514	0.49537079	1.2986577	0.004131887	0.44624393	1.4143501	-0.10762643	0.3583096	0.49373877	0.094258743	0.34930502	0.51841724	0.18344942	0.45488248	0.67482123	0.16192062	0.30917862	0.10619258	0.10705033	0.28411084	0.10236037	0.1974823	0.3106709	0.37558682	0.21595461	0.20565594	0.062341225	0.14981857
4126	41.25	0.44262234	0.064152466	0.15004619	0.46610306	1.0257838	0.15053163	0.38999765	1.0246749	0.19090376	0.25162769	1.0211152	0.026160923	0.35157043	1.0293547	-0.15323792	0.44726151	1.0382087	-0.12467554	0.43817099	1.4540399	0.0089322205	0.33522501	1.4721306	0.21450639	0.32201031	1.4780796	-0.1732818	0.49526669	1.2986143	0.0041759515	0.44619562	1.4142991	-0.10760828	0.358492	0.49373798	0.094323112	0.34949557	0.51839813	0.18350716	0.45496027	0.67486322	0.16202124	0.309177	0.1061912	0.10704567	0.28411166	0.10235683	0.1974659	0.31083884	0.375556	0.21598627	0.20565504	0.062344963	0.14982243
4127	41.26	0.44261502	0.064152855	0.15004683	0.46608624	1.025833	0.15065833	0.38996878	1.0246903	0.19102422	0.25160242	1.0210601	0.026335806	0.35150024	1.0293243	-0.15309251	0.44698184	1.0381444	-0.12455903	0.4380975	1.4540226	0.008939085	0.33516956	1.4722135	0.21449794	0.32200632	1.4780894	-0.17330531	0.49515729	1.2985857	0.0042224193	0.44614548	1.414267	-0.1075869	0.35868149	0.49374329	0.094379227	0.34968854	0.51838672	0.18355209	0.45504272	0.67491376	0.1621236	0.30917966	0.10619179	0.10703751	0.28411877	0.10236078	0.19744794	0.31100806	0.37553326	0.21600681	0.20565616	0.062354523	0.14982474
4128	41.27	0.44260925	0.064152557	0.15004724	0.46605807	1.0258898	0.15077495	0.38993274	1.0247104	0.19113254	0.25156078	1.0210097	0.026503677	0.35139435	1.0293077	-0.1529567	0.44663416	1.0380878	-0.12446117	0.43802026	1.4540162	0.0089509745	0.33513702	1.472326	0.21449907	0.32200552	1.4781123	-0.17332191	0.49504465	1.2985681	0.0042729492	0.44609244	1.4142487	-0.10756194	0.35887561	0.49375534	0.094428246	0.34987613	0.51838336	0.18358621	0.45512769	0.6749718	0.16222559	0.30918637	0.10619452	0.10702695	0.28413068	0.10237175	0.19742963	0.31117151	0.37551923	0.21601851	0.20565892	0.062369156	0.14982532
